<svg width="499.978" height="396.027" xmlns="http://www.w3.org/2000/svg">

 <g>
  <title>background</title>
  <rect fill="none" id="canvas_background" height="402" width="582" y="-1" x="-1"/>
 </g>
 <g>
  <title>Layer 1</title>
  <path id="svg_1" fill="#000000" d="m404.169006,119.452003c-4.311981,0 -8.516998,0.364998 -12.690002,0.922997c-3.647003,-67.106998 -59.200012,-120.375 -127.218018,-120.375c-55.5,0 -97.793991,40.396 -115.258011,89.931999c-9.320999,-2.445999 -24.005997,-8.667999 -34.099998,-8.667999c-63.446976,0 -114.902977,51.445 -114.902977,114.926003c0,63.437012 51.456001,114.882019 114.903,114.882019c3.862,0 8.249001,0 13.054001,0c22.160995,33.165985 59.929993,55.070984 102.718994,55.070984c3.422012,0 6.897003,-0.151001 10.383011,-0.428986c4.03299,12.570984 14.373993,22.483002 28.42598,27.202972c6.136017,2.080017 12.776001,3.111023 19.736023,3.111023c7.208984,0 14.492004,-1.116028 21.645996,-3.326019c9.815002,-3.067993 18.911011,-8.386993 26.26001,-15.445984c9.149994,-8.710022 15.209991,-19.715027 16.862,-30.420013c0.257996,-1.201996 0.39798,-2.445984 0.417999,-3.69101c0.108002,-1.629974 0.108002,-3.238983 0,-4.806l0,-11.306c3.013977,1.845001 6.446991,2.768005 9.932983,2.768005c3.442993,0 6.897003,-0.902008 9.987,-2.811005c1.040009,-0.643982 6.640015,-4.225983 13.063995,-11.091003c1.416016,-1.502991 2.703003,-3.196991 4.03302,-4.827972c5.126984,0 9.471985,0 12.743988,0c52.903015,0 95.80899,-42.907013 95.80899,-95.831009c0.001007,-52.903 -42.904999,-95.788002 -95.807983,-95.788002zm-94.77002,190.933006l0,-1.652008c0.416992,0.022003 0.847015,0.085999 1.265015,0.128998c-0.417999,0.515015 -0.847992,1.029999 -1.265015,1.52301zm-57.343994,25.056976c-1.813004,3.28299 -2.906998,6.673004 -3.337006,10.019989c-5.867004,1.029022 -11.884995,1.587006 -18.041,1.587006c-31.472992,0 -59.619003,-13.966003 -78.733994,-35.97699c-15.940002,-18.321014 -25.658005,-42.197998 -25.658005,-68.393005c0,-57.623001 46.735001,-104.369003 104.391006,-104.369003c32.072998,0 60.765991,14.501999 79.890991,37.264999l0,19.436005l-45.502991,28.76799c1.597992,2.960999 2.875,6.072006 3.64798,9.397003l41.855011,-12.656998l0,87.636017c-7.615997,-0.601013 -15.949982,0.278992 -24.29599,2.746002c-0.171021,0.042999 -0.333008,0.128998 -0.503998,0.17099c-15.338013,4.677002 -27.932007,13.730011 -33.712006,24.369995zm130.596008,-45.072998c-2.938995,5.148987 -6.200989,9.289001 -9.139008,12.421997c-5.063995,5.406006 -9.182983,7.937012 -9.182983,7.937012s2.306976,-4.462006 4.22699,-11.348999c1.587006,-5.641022 2.875,-12.871002 2.434998,-20.638c-0.428986,-7.787018 -2.627991,-16.08902 -8.078003,-23.770004c-6.585999,-9.268005 -14.320007,-14.675003 -20.959991,-17.742996c-0.17099,-0.086014 -0.333008,-0.149002 -0.515015,-0.235001c-2.208984,-0.966003 -4.257996,-1.695007 -6.113983,-2.23201l0,76.309998l0,28.039001c0.117981,1.223999 0.085999,2.488983 -0.054016,3.819c0.011017,-0.022003 0.03302,-0.022003 0.054016,-0.022003c-0.020996,0 -0.042999,0 -0.054016,0.022003c-0.717987,6.694 -4.772003,14.244995 -11.337982,20.509003c-4.923004,4.720001 -11.274017,8.708984 -18.729004,11.027008c-10.630005,3.303986 -21.21701,3.195984 -29.605011,0.36499c-8.087982,-2.725006 -14.179993,-7.938019 -16.41098,-15.102997c-1.738007,-5.621002 -0.805023,-11.649994 2.144989,-17.247986c4.708984,-8.96701 14.652985,-16.948029 27.459991,-20.917023c4.333008,-1.35199 8.677002,-2.10199 12.861023,-2.380981c3.056976,-0.193024 6.070984,-0.108002 8.912994,0.235992c0.268005,0.042999 0.526001,0.042999 0.793976,0.085999c2.231018,0.299988 4.355011,0.792999 6.361023,1.394012c1.597992,0.514984 3.100006,1.115997 4.526978,1.780975c0.139008,-0.106995 0.322021,-0.148987 0.461029,-0.256989l0,-11.348999l0,-140.475998c0,0 4.654999,0.87999 11.562988,3.432999c0.321991,-1.115005 0.526001,0.192993 0.526001,0.192993c17.376984,6.458008 48.03299,23.14801 55.294983,61.807007c4.604004,24.455994 -0.544983,42.240997 -7.441986,54.339996z"/>
  <path id="svg_2" fill="#000000" d="m203.688004,213.996002c5.427994,-5.449005 12.088989,-8.817001 19.093002,-10.425995l-12.249008,-47.326004c-15.179001,3.690002 -29.574005,11.348999 -41.447998,23.190994c-3.453003,3.497009 -6.455994,7.186996 -9.235001,11.091995l39.634995,28.619003c1.264999,-1.802994 2.584,-3.541 4.20401,-5.149994z"/>
  <path id="svg_3" fill="#000000" d="m230.761993,216.487991c-14.395996,0 -26.087006,11.67099 -26.087006,26.087006c0,14.416977 11.69101,26.08696 26.087006,26.08696c14.394989,0 26.097992,-11.67099 26.097992,-26.08696c0,-14.416 -11.702988,-26.087006 -26.097992,-26.087006z"/>
  <path id="svg_4" fill="#000000" d="m194.570999,256.989014l-45.289001,18.38501c5.643005,13.815979 14.630997,25.872986 26.012009,35.139984c9.599991,-11.283997 21.119995,-25.378998 31.181992,-37.863983c-5.169998,-4.141022 -9.363998,-9.462036 -11.904999,-15.661011z"/>
 </g>
</svg>